<svg width="468" height="568" viewBox="0 0 468 568" fill="none" xmlns="http://www.w3.org/2000/svg">
<g filter="url(#filter0_f_43_1141)">
<rect x="214" y="194" width="250" height="370" rx="20" fill="#151515"/>
<rect x="214.5" y="194.5" width="249" height="369" rx="19.5" stroke="url(#paint0_linear_43_1141)"/>
<path d="M268.059 269.746H273.169C273.066 271.42 272.605 272.907 271.784 274.206C270.975 275.505 269.842 276.519 268.383 277.248C266.936 277.977 265.193 278.342 263.154 278.342C261.559 278.342 260.129 278.068 258.864 277.521C257.6 276.963 256.517 276.166 255.617 275.129C254.729 274.092 254.051 272.839 253.584 271.369C253.116 269.899 252.883 268.253 252.883 266.43V264.704C252.883 262.881 253.122 261.235 253.601 259.765C254.091 258.284 254.786 257.025 255.686 255.988C256.597 254.951 257.685 254.154 258.95 253.596C260.214 253.037 261.627 252.758 263.188 252.758C265.262 252.758 267.011 253.134 268.435 253.886C269.87 254.638 270.981 255.675 271.767 256.997C272.565 258.318 273.043 259.822 273.203 261.508H268.076C268.019 260.506 267.819 259.657 267.478 258.962C267.136 258.256 266.617 257.726 265.922 257.373C265.239 257.008 264.327 256.826 263.188 256.826C262.334 256.826 261.587 256.985 260.949 257.304C260.311 257.623 259.776 258.107 259.343 258.757C258.91 259.406 258.585 260.227 258.369 261.218C258.164 262.198 258.061 263.348 258.061 264.67V266.43C258.061 267.718 258.158 268.851 258.352 269.831C258.545 270.799 258.842 271.62 259.24 272.292C259.65 272.953 260.175 273.454 260.813 273.796C261.462 274.126 262.242 274.292 263.154 274.292C264.225 274.292 265.108 274.121 265.803 273.779C266.498 273.437 267.028 272.93 267.392 272.258C267.768 271.586 267.99 270.748 268.059 269.746ZM295.332 274.001V278H282.087V274.001H295.332ZM283.762 253.117V278H278.635V253.117H283.762ZM293.606 263.251V267.148H282.087V263.251H293.606ZM295.315 253.117V257.133H282.087V253.117H295.315ZM313.377 271.489C313.377 271.044 313.308 270.646 313.172 270.292C313.046 269.928 312.807 269.597 312.454 269.301C312.101 268.994 311.605 268.692 310.967 268.396C310.329 268.099 309.503 267.792 308.489 267.473C307.361 267.108 306.29 266.698 305.276 266.242C304.274 265.786 303.385 265.257 302.61 264.653C301.847 264.038 301.243 263.326 300.799 262.517C300.366 261.708 300.149 260.768 300.149 259.697C300.149 258.66 300.377 257.72 300.833 256.877C301.289 256.022 301.927 255.293 302.747 254.689C303.567 254.074 304.536 253.601 305.652 253.271C306.78 252.941 308.016 252.775 309.361 252.775C311.195 252.775 312.796 253.106 314.163 253.767C315.53 254.427 316.59 255.333 317.342 256.484C318.105 257.635 318.487 258.951 318.487 260.432H313.394C313.394 259.702 313.24 259.064 312.933 258.518C312.636 257.959 312.181 257.521 311.565 257.202C310.961 256.883 310.198 256.723 309.275 256.723C308.387 256.723 307.646 256.86 307.054 257.133C306.461 257.395 306.017 257.754 305.721 258.21C305.424 258.654 305.276 259.156 305.276 259.714C305.276 260.135 305.379 260.517 305.584 260.859C305.8 261.201 306.119 261.52 306.541 261.816C306.962 262.112 307.481 262.391 308.096 262.653C308.711 262.915 309.423 263.172 310.232 263.422C311.588 263.833 312.779 264.294 313.804 264.807C314.841 265.319 315.707 265.895 316.402 266.533C317.097 267.171 317.621 267.894 317.974 268.703C318.327 269.512 318.504 270.429 318.504 271.455C318.504 272.537 318.293 273.505 317.871 274.36C317.45 275.214 316.84 275.938 316.043 276.53C315.245 277.123 314.294 277.573 313.189 277.88C312.084 278.188 310.848 278.342 309.48 278.342C308.25 278.342 307.037 278.182 305.84 277.863C304.644 277.533 303.556 277.037 302.576 276.376C301.608 275.716 300.833 274.873 300.252 273.847C299.671 272.822 299.38 271.608 299.38 270.207H304.524C304.524 270.982 304.644 271.637 304.883 272.172C305.122 272.708 305.459 273.141 305.892 273.471C306.336 273.802 306.86 274.041 307.464 274.189C308.079 274.337 308.751 274.411 309.48 274.411C310.369 274.411 311.098 274.286 311.668 274.035C312.249 273.785 312.676 273.437 312.95 272.993C313.234 272.548 313.377 272.047 313.377 271.489ZM342.545 278H337.128L337.162 274.001H342.545C343.89 274.001 345.023 273.699 345.946 273.095C346.869 272.48 347.564 271.586 348.031 270.412C348.509 269.239 348.749 267.82 348.749 266.157V264.943C348.749 263.667 348.612 262.545 348.339 261.577C348.077 260.608 347.683 259.794 347.159 259.133C346.635 258.472 345.992 257.976 345.228 257.646C344.465 257.304 343.588 257.133 342.596 257.133H337.025V253.117H342.596C344.26 253.117 345.781 253.402 347.159 253.972C348.549 254.53 349.751 255.333 350.765 256.381C351.779 257.43 352.56 258.683 353.107 260.141C353.665 261.588 353.944 263.2 353.944 264.978V266.157C353.944 267.923 353.665 269.535 353.107 270.993C352.56 272.451 351.779 273.705 350.765 274.753C349.763 275.79 348.561 276.593 347.159 277.163C345.769 277.721 344.231 278 342.545 278ZM340.033 253.117V278H334.906V253.117H340.033ZM376.466 274.001V278H363.222V274.001H376.466ZM364.897 253.117V278H359.77V253.117H364.897ZM374.74 263.251V267.148H363.222V263.251H374.74ZM376.449 253.117V257.133H363.222V253.117H376.449ZM395.981 269.746H401.091C400.988 271.42 400.527 272.907 399.707 274.206C398.898 275.505 397.764 276.519 396.306 277.248C394.859 277.977 393.116 278.342 391.076 278.342C389.481 278.342 388.051 278.068 386.787 277.521C385.522 276.963 384.44 276.166 383.54 275.129C382.651 274.092 381.973 272.839 381.506 271.369C381.039 269.899 380.805 268.253 380.805 266.43V264.704C380.805 262.881 381.044 261.235 381.523 259.765C382.013 258.284 382.708 257.025 383.608 255.988C384.519 254.951 385.607 254.154 386.872 253.596C388.137 253.037 389.549 252.758 391.11 252.758C393.184 252.758 394.933 253.134 396.357 253.886C397.792 254.638 398.903 255.675 399.689 256.997C400.487 258.318 400.965 259.822 401.125 261.508H395.998C395.941 260.506 395.742 259.657 395.4 258.962C395.058 258.256 394.54 257.726 393.845 257.373C393.161 257.008 392.25 256.826 391.11 256.826C390.256 256.826 389.51 256.985 388.872 257.304C388.234 257.623 387.698 258.107 387.265 258.757C386.832 259.406 386.507 260.227 386.291 261.218C386.086 262.198 385.983 263.348 385.983 264.67V266.43C385.983 267.718 386.08 268.851 386.274 269.831C386.468 270.799 386.764 271.62 387.163 272.292C387.573 272.953 388.097 273.454 388.735 273.796C389.384 274.126 390.165 274.292 391.076 274.292C392.147 274.292 393.03 274.121 393.725 273.779C394.42 273.437 394.95 272.93 395.314 272.258C395.69 271.586 395.913 270.748 395.981 269.746ZM411.684 253.117V278H406.558V253.117H411.684ZM426.587 253.117L416.726 265.405L411.035 271.523L410.112 266.669L413.957 261.406L420.298 253.117H426.587ZM420.759 278L413.428 266.499L417.222 263.32L426.826 278H420.759Z" fill="white"/>
<path d="M246.759 463.644V464.464C246.759 465.979 246.531 467.341 246.076 468.548C245.631 469.756 244.999 470.787 244.179 471.642C243.358 472.496 242.379 473.151 241.239 473.607C240.111 474.051 238.864 474.273 237.497 474.273C236.129 474.273 234.876 474.051 233.737 473.607C232.609 473.151 231.629 472.496 230.797 471.642C229.966 470.787 229.322 469.756 228.866 468.548C228.41 467.341 228.183 465.979 228.183 464.464V463.644C228.183 462.117 228.405 460.755 228.849 459.559C229.305 458.351 229.943 457.32 230.763 456.466C231.595 455.6 232.575 454.945 233.703 454.5C234.842 454.045 236.095 453.817 237.462 453.817C238.83 453.817 240.077 454.045 241.205 454.5C242.344 454.945 243.33 455.6 244.162 456.466C244.993 457.32 245.631 458.351 246.076 459.559C246.531 460.755 246.759 462.117 246.759 463.644ZM241.82 464.464V463.609C241.82 462.652 241.718 461.809 241.513 461.08C241.319 460.34 241.034 459.719 240.658 459.217C240.294 458.705 239.838 458.317 239.291 458.055C238.756 457.782 238.146 457.645 237.462 457.645C236.767 457.645 236.146 457.782 235.6 458.055C235.064 458.317 234.614 458.705 234.25 459.217C233.885 459.719 233.606 460.34 233.412 461.08C233.23 461.809 233.139 462.652 233.139 463.609V464.464C233.139 465.41 233.23 466.253 233.412 466.993C233.606 467.734 233.891 468.366 234.267 468.89C234.643 469.403 235.098 469.796 235.634 470.069C236.181 470.331 236.802 470.462 237.497 470.462C238.18 470.462 238.79 470.331 239.325 470.069C239.861 469.796 240.311 469.403 240.675 468.89C241.051 468.366 241.336 467.734 241.53 466.993C241.723 466.253 241.82 465.41 241.82 464.464ZM260.156 467.352H254.789V463.507H260.156C260.908 463.507 261.529 463.399 262.018 463.182C262.508 462.954 262.867 462.652 263.095 462.276C263.334 461.889 263.454 461.45 263.454 460.96C263.454 460.425 263.334 459.929 263.095 459.474C262.867 459.018 262.508 458.653 262.018 458.38C261.529 458.095 260.908 457.953 260.156 457.953H256.618V474H251.696V454.09H260.156C261.865 454.09 263.329 454.387 264.548 454.979C265.778 455.571 266.718 456.38 267.368 457.406C268.028 458.431 268.359 459.605 268.359 460.926C268.359 461.883 268.171 462.761 267.795 463.558C267.43 464.344 266.889 465.022 266.171 465.592C265.465 466.161 264.605 466.6 263.591 466.908C262.588 467.204 261.443 467.352 260.156 467.352ZM287.976 470.155V474H276.526V470.155H287.976ZM278.269 454.09V474H273.347V454.09H278.269ZM286.506 461.781V465.626H276.526V461.781H286.506ZM287.993 454.09V457.953H276.526V454.09H287.993ZM292.28 454.09H300.603C301.834 454.09 302.945 454.221 303.936 454.483C304.927 454.734 305.77 455.11 306.465 455.611C307.171 456.113 307.713 456.739 308.089 457.491C308.465 458.232 308.653 459.092 308.653 460.072C308.653 461.234 308.459 462.202 308.071 462.977C307.684 463.752 307.149 464.384 306.465 464.874C305.781 465.364 304.99 465.774 304.09 466.104L302.449 467.062H295.374L295.34 463.216H300.637C301.321 463.216 301.891 463.114 302.346 462.909C302.802 462.692 303.144 462.385 303.372 461.986C303.6 461.587 303.714 461.114 303.714 460.567C303.714 460.009 303.594 459.536 303.355 459.149C303.115 458.762 302.762 458.465 302.295 458.26C301.839 458.055 301.275 457.953 300.603 457.953H297.219V474H292.28V454.09ZM304.09 474L299.321 465.216L304.551 465.165L309.404 473.795V474H304.09ZM322.545 459.269L317.247 474H312.274L320.135 454.09H323.519L322.545 459.269ZM327.774 474L322.374 459.269L321.382 454.09H324.817L332.73 474H327.774ZM327.671 466.6V470.104H316.666V466.6H327.671ZM345.614 454.09V474H340.658V454.09H345.614ZM352.091 454.09V457.953H334.317V454.09H352.091ZM361.762 454.09V474H356.823V454.09H361.762ZM385.566 463.644V464.464C385.566 465.979 385.338 467.341 384.882 468.548C384.438 469.756 383.805 470.787 382.985 471.642C382.165 472.496 381.185 473.151 380.046 473.607C378.918 474.051 377.67 474.273 376.303 474.273C374.936 474.273 373.683 474.051 372.543 473.607C371.415 473.151 370.436 472.496 369.604 471.642C368.772 470.787 368.128 469.756 367.673 468.548C367.217 467.341 366.989 465.979 366.989 464.464V463.644C366.989 462.117 367.211 460.755 367.656 459.559C368.111 458.351 368.749 457.32 369.57 456.466C370.401 455.6 371.381 454.945 372.509 454.5C373.648 454.045 374.902 453.817 376.269 453.817C377.636 453.817 378.884 454.045 380.012 454.5C381.151 454.945 382.136 455.6 382.968 456.466C383.8 457.32 384.438 458.351 384.882 459.559C385.338 460.755 385.566 462.117 385.566 463.644ZM380.627 464.464V463.609C380.627 462.652 380.524 461.809 380.319 461.08C380.125 460.34 379.841 459.719 379.465 459.217C379.1 458.705 378.644 458.317 378.097 458.055C377.562 457.782 376.952 457.645 376.269 457.645C375.574 457.645 374.953 457.782 374.406 458.055C373.871 458.317 373.421 458.705 373.056 459.217C372.691 459.719 372.412 460.34 372.219 461.08C372.036 461.809 371.945 462.652 371.945 463.609V464.464C371.945 465.41 372.036 466.253 372.219 466.993C372.412 467.734 372.697 468.366 373.073 468.89C373.449 469.403 373.905 469.796 374.44 470.069C374.987 470.331 375.608 470.462 376.303 470.462C376.987 470.462 377.596 470.331 378.132 470.069C378.667 469.796 379.117 469.403 379.482 468.89C379.858 468.366 380.143 467.734 380.336 466.993C380.53 466.253 380.627 465.41 380.627 464.464ZM408.242 454.09V474H403.303L395.425 461.319V474H390.503V454.09H395.425L403.303 466.771V454.09H408.242ZM422.288 459.269L416.99 474H412.017L419.878 454.09H423.262L422.288 459.269ZM427.517 474L422.117 459.269L421.126 454.09H424.561L432.473 474H427.517ZM427.415 466.6V470.104H416.409V466.6H427.415ZM450.313 470.155V474H439.478V470.155H450.313ZM441.221 454.09V474H436.299V454.09H441.221Z" fill="#2C3A51"/>
<path d="M260.102 503.123H262.924C262.879 503.93 262.648 504.637 262.231 505.242C261.814 505.848 261.238 506.32 260.502 506.658C259.767 506.99 258.901 507.156 257.905 507.156C257.091 507.156 256.365 507.029 255.727 506.775C255.095 506.521 254.558 506.154 254.116 505.672C253.673 505.19 253.334 504.607 253.1 503.924C252.872 503.24 252.758 502.465 252.758 501.6V501.033C252.758 500.167 252.879 499.393 253.12 498.709C253.36 498.019 253.705 497.433 254.155 496.951C254.604 496.469 255.141 496.102 255.766 495.848C256.391 495.587 257.091 495.457 257.866 495.457C258.92 495.457 259.809 495.636 260.532 495.994C261.261 496.352 261.824 496.844 262.221 497.469C262.625 498.087 262.862 498.794 262.934 499.588H260.121C260.102 499.223 260.017 498.898 259.868 498.611C259.718 498.318 259.48 498.087 259.155 497.918C258.836 497.749 258.406 497.664 257.866 497.664C257.488 497.664 257.156 497.732 256.87 497.869C256.583 498.006 256.342 498.214 256.147 498.494C255.958 498.774 255.815 499.126 255.717 499.549C255.62 499.965 255.571 500.457 255.571 501.023V501.6C255.571 502.173 255.613 502.671 255.698 503.094C255.789 503.517 255.929 503.868 256.118 504.148C256.306 504.422 256.547 504.627 256.84 504.764C257.14 504.9 257.495 504.969 257.905 504.969C258.373 504.969 258.767 504.904 259.086 504.773C259.405 504.637 259.649 504.432 259.819 504.158C259.988 503.885 260.082 503.54 260.102 503.123ZM273.831 500.32V502.518H267.493V500.32H273.831ZM268.411 495.623V507H265.599V495.623H268.411ZM275.745 495.623V507H272.933V495.623H275.745ZM287.248 504.803V507H280.705V504.803H287.248ZM281.701 495.623V507H278.889V495.623H281.701ZM286.408 500.018V502.215H280.705V500.018H286.408ZM287.258 495.623V497.83H280.705V495.623H287.258ZM291.104 495.623H293.429L296.261 503.406L299.102 495.623H301.417L297.198 507H295.333L291.104 495.623ZM289.718 495.623H292.091L292.54 504.539V507H289.718V495.623ZM300.44 495.623H302.833V507H300.001V504.539L300.44 495.623ZM309.004 495.623V507H306.181V495.623H309.004ZM319.344 503.123H322.166C322.121 503.93 321.89 504.637 321.473 505.242C321.056 505.848 320.48 506.32 319.745 506.658C319.009 506.99 318.143 507.156 317.147 507.156C316.333 507.156 315.607 507.029 314.969 506.775C314.338 506.521 313.801 506.154 313.358 505.672C312.915 505.19 312.577 504.607 312.342 503.924C312.114 503.24 312 502.465 312 501.6V501.033C312 500.167 312.121 499.393 312.362 498.709C312.603 498.019 312.948 497.433 313.397 496.951C313.846 496.469 314.383 496.102 315.008 495.848C315.633 495.587 316.333 495.457 317.108 495.457C318.162 495.457 319.051 495.636 319.774 495.994C320.503 496.352 321.066 496.844 321.463 497.469C321.867 498.087 322.105 498.794 322.176 499.588H319.364C319.344 499.223 319.26 498.898 319.11 498.611C318.96 498.318 318.722 498.087 318.397 497.918C318.078 497.749 317.648 497.664 317.108 497.664C316.73 497.664 316.398 497.732 316.112 497.869C315.825 498.006 315.584 498.214 315.389 498.494C315.2 498.774 315.057 499.126 314.959 499.549C314.862 499.965 314.813 500.457 314.813 501.023V501.6C314.813 502.173 314.855 502.671 314.94 503.094C315.031 503.517 315.171 503.868 315.36 504.148C315.549 504.422 315.789 504.627 316.082 504.764C316.382 504.9 316.737 504.969 317.147 504.969C317.616 504.969 318.01 504.904 318.329 504.773C318.648 504.637 318.892 504.432 319.061 504.158C319.23 503.885 319.325 503.54 319.344 503.123ZM329.714 498.582L326.687 507H323.845L328.337 495.623H330.271L329.714 498.582ZM332.702 507L329.616 498.582L329.05 495.623H331.013L335.534 507H332.702ZM332.644 502.771V504.773H326.355V502.771H332.644ZM345.729 504.803V507H339.537V504.803H345.729ZM340.533 495.623V507H337.721V495.623H340.533ZM360.218 495.623V507H357.386V495.623H360.218ZM363.92 495.623V497.83H353.763V495.623H363.92ZM371.311 498.582L368.284 507H365.442L369.934 495.623H371.868L371.311 498.582ZM374.299 507L371.213 498.582L370.647 495.623H372.61L377.131 507H374.299ZM374.241 502.771V504.773H367.952V502.771H374.241ZM389.454 495.623V507H386.632L382.13 499.754V507H379.318V495.623H382.13L386.632 502.869V495.623H389.454ZM395.42 495.623V507H392.607V495.623H395.42ZM402.666 495.623L397.969 501.443L395.303 504.061L394.59 501.551L396.396 499.139L399.141 495.623H402.666ZM399.434 507L396.152 501.912L398.32 500.32L402.773 507H399.434ZM413.163 504.803V507H406.62V504.803H413.163ZM407.616 495.623V507H404.804V495.623H407.616ZM412.323 500.018V502.215H406.62V500.018H412.323ZM413.173 495.623V497.83H406.62V495.623H413.173ZM415.623 495.623H420.379C421.082 495.623 421.716 495.698 422.283 495.848C422.849 495.991 423.331 496.206 423.728 496.492C424.132 496.779 424.441 497.137 424.656 497.566C424.871 497.99 424.978 498.481 424.978 499.041C424.978 499.705 424.867 500.258 424.646 500.701C424.425 501.144 424.119 501.505 423.728 501.785C423.337 502.065 422.885 502.299 422.371 502.488L421.433 503.035H417.39L417.371 500.838H420.398C420.789 500.838 421.114 500.779 421.375 500.662C421.635 500.538 421.83 500.363 421.961 500.135C422.091 499.907 422.156 499.637 422.156 499.324C422.156 499.005 422.087 498.735 421.951 498.514C421.814 498.292 421.612 498.123 421.345 498.006C421.085 497.889 420.763 497.83 420.379 497.83H418.445V507H415.623V495.623ZM422.371 507L419.646 501.98L422.634 501.951L425.408 506.883V507H422.371Z" fill="white" fill-opacity="0.7"/>
<line x1="239" y1="484.5" x2="439" y2="484.5" stroke="url(#paint1_linear_43_1141)"/>
<path d="M369.516 359.479L365.338 354.124L410.13 342.576L369.516 359.479Z" fill="#33B7BD"/>
<path d="M284.611 403.996L245 341.07L330.407 377.888L284.611 403.996Z" fill="#00BB72"/>
<path d="M334.752 381.738L291.965 405H374.865L334.752 381.738Z" fill="#00BB72"/>
<path d="M331.744 324V373.37L304.667 362.492L331.744 324Z" fill="#33B7BD"/>
<path d="M259.708 342.576L299.486 358.81L303.832 353.957L259.708 342.576Z" fill="#33B7BD"/>
<path d="M336.089 324V373.37L363.833 362.157L336.089 324Z" fill="#33B7BD"/>
<path d="M423 341.405L338.262 377.888L383.222 405L423 341.405Z" fill="#00BB72"/>
</g>
<g filter="url(#filter1_f_43_1141)">
<rect x="4" y="4" width="250" height="370" rx="20" fill="#151515"/>
<rect x="4.5" y="4.5" width="249" height="369" rx="19.5" stroke="url(#paint2_linear_43_1141)"/>
<path d="M52.7613 90.9248H57.1412C57.0533 92.3604 56.6578 93.6348 55.9547 94.748C55.2613 95.8613 54.2896 96.7305 53.0396 97.3555C51.7994 97.9805 50.3053 98.293 48.5572 98.293C47.19 98.293 45.9645 98.0586 44.8805 97.5898C43.7965 97.1113 42.8688 96.4277 42.0973 95.5391C41.3355 94.6504 40.7545 93.5762 40.3541 92.3164C39.9537 91.0566 39.7535 89.6455 39.7535 88.083V86.6035C39.7535 85.041 39.9586 83.6299 40.3688 82.3701C40.7887 81.1006 41.3844 80.0215 42.1559 79.1328C42.9371 78.2441 43.8697 77.5605 44.9537 77.082C46.0377 76.6035 47.2486 76.3643 48.5865 76.3643C50.3639 76.3643 51.8629 76.6865 53.0836 77.3311C54.3141 77.9756 55.2662 78.8643 55.94 79.9971C56.6236 81.1299 57.0338 82.4189 57.1705 83.8643H52.776C52.7271 83.0049 52.5563 82.2773 52.2633 81.6816C51.9703 81.0762 51.526 80.6221 50.9303 80.3193C50.3443 80.0068 49.5631 79.8506 48.5865 79.8506C47.8541 79.8506 47.2145 79.9873 46.6676 80.2607C46.1207 80.5342 45.6617 80.9492 45.2906 81.5059C44.9195 82.0625 44.6412 82.7656 44.4557 83.6152C44.2799 84.4551 44.192 85.4414 44.192 86.5742V88.083C44.192 89.1865 44.275 90.1582 44.441 90.998C44.607 91.8281 44.8609 92.5312 45.2027 93.1074C45.5543 93.6738 46.0035 94.1035 46.5504 94.3965C47.107 94.6797 47.776 94.8213 48.5572 94.8213C49.4752 94.8213 50.232 94.6748 50.8277 94.3818C51.4234 94.0889 51.8775 93.6543 52.19 93.0781C52.5123 92.502 52.7027 91.7842 52.7613 90.9248ZM76.1385 94.5723V98H64.7859V94.5723H76.1385ZM66.2215 76.6719V98H61.827V76.6719H66.2215ZM74.659 85.3584V88.6982H64.7859V85.3584H74.659ZM76.1238 76.6719V80.1143H64.7859V76.6719H76.1238ZM91.6055 92.4189C91.6055 92.0381 91.5469 91.6963 91.4297 91.3936C91.3223 91.0811 91.1172 90.7979 90.8145 90.5439C90.5117 90.2803 90.0869 90.0215 89.54 89.7676C88.9932 89.5137 88.2852 89.25 87.416 88.9766C86.4492 88.6641 85.5312 88.3125 84.6621 87.9219C83.8027 87.5312 83.041 87.0771 82.377 86.5596C81.7227 86.0322 81.2051 85.4219 80.8242 84.7285C80.4531 84.0352 80.2676 83.2295 80.2676 82.3115C80.2676 81.4229 80.4629 80.6172 80.8535 79.8945C81.2441 79.1621 81.791 78.5371 82.4941 78.0195C83.1973 77.4922 84.0273 77.0869 84.9844 76.8037C85.9512 76.5205 87.0107 76.3789 88.1631 76.3789C89.7354 76.3789 91.1074 76.6621 92.2793 77.2285C93.4512 77.7949 94.3594 78.5713 95.0039 79.5576C95.6582 80.5439 95.9854 81.6719 95.9854 82.9414H91.6201C91.6201 82.3164 91.4883 81.7695 91.2246 81.3008C90.9707 80.8223 90.5801 80.4463 90.0527 80.1729C89.5352 79.8994 88.8809 79.7627 88.0898 79.7627C87.3281 79.7627 86.6934 79.8799 86.1855 80.1143C85.6777 80.3389 85.2969 80.6465 85.043 81.0371C84.7891 81.418 84.6621 81.8477 84.6621 82.3262C84.6621 82.6875 84.75 83.0146 84.9258 83.3076C85.1113 83.6006 85.3848 83.874 85.7461 84.1279C86.1074 84.3818 86.5518 84.6211 87.0791 84.8457C87.6064 85.0703 88.2168 85.29 88.9102 85.5049C90.0723 85.8564 91.0928 86.252 91.9717 86.6914C92.8604 87.1309 93.6025 87.624 94.1982 88.1709C94.7939 88.7178 95.2432 89.3379 95.5459 90.0312C95.8486 90.7246 96 91.5107 96 92.3896C96 93.3174 95.8193 94.1475 95.458 94.8799C95.0967 95.6123 94.5742 96.2324 93.8906 96.7402C93.207 97.248 92.3916 97.6338 91.4443 97.8975C90.4971 98.1611 89.4375 98.293 88.2656 98.293C87.2109 98.293 86.1709 98.1562 85.1455 97.8828C84.1201 97.5996 83.1875 97.1748 82.3477 96.6084C81.5176 96.042 80.8535 95.3193 80.3555 94.4404C79.8574 93.5615 79.6084 92.5215 79.6084 91.3203H84.0176C84.0176 91.9844 84.1201 92.5459 84.3252 93.0049C84.5303 93.4639 84.8184 93.835 85.1895 94.1182C85.5703 94.4014 86.0195 94.6064 86.5371 94.7334C87.0645 94.8604 87.6406 94.9238 88.2656 94.9238C89.0273 94.9238 89.6523 94.8164 90.1406 94.6016C90.6387 94.3867 91.0049 94.0889 91.2393 93.708C91.4834 93.3271 91.6055 92.8975 91.6055 92.4189ZM124.371 94.5723V98H113.018V94.5723H124.371ZM114.454 76.6719V98H110.059V76.6719H114.454ZM122.891 85.3584V88.6982H113.018V85.3584H122.891ZM124.356 76.6719V80.1143H113.018V76.6719H124.356ZM146.092 76.6719V98H141.698L133.129 83.7031V98H128.734V76.6719H133.129L141.713 90.9834V76.6719H146.092ZM168.62 86.8525V95.3047C168.288 95.7051 167.775 96.1396 167.082 96.6084C166.388 97.0674 165.495 97.4629 164.401 97.7949C163.307 98.127 161.984 98.293 160.431 98.293C159.054 98.293 157.8 98.0684 156.667 97.6191C155.534 97.1602 154.557 96.4912 153.737 95.6123C152.927 94.7334 152.302 93.6592 151.862 92.3896C151.423 91.1104 151.203 89.6504 151.203 88.0098V86.6768C151.203 85.0361 151.413 83.5762 151.833 82.2969C152.263 81.0176 152.873 79.9385 153.664 79.0596C154.455 78.1807 155.397 77.5117 156.491 77.0527C157.585 76.5938 158.801 76.3643 160.138 76.3643C161.994 76.3643 163.517 76.667 164.709 77.2725C165.9 77.8682 166.808 78.6982 167.433 79.7627C168.068 80.8174 168.459 82.0283 168.605 83.3955H164.343C164.235 82.6729 164.03 82.043 163.727 81.5059C163.425 80.9688 162.99 80.5488 162.424 80.2461C161.867 79.9434 161.144 79.792 160.256 79.792C159.523 79.792 158.869 79.9434 158.293 80.2461C157.726 80.5391 157.248 80.9736 156.857 81.5498C156.467 82.126 156.169 82.8389 155.964 83.6885C155.759 84.5381 155.656 85.5244 155.656 86.6475V88.0098C155.656 89.123 155.763 90.1094 155.978 90.9688C156.193 91.8184 156.511 92.5361 156.93 93.1221C157.36 93.6982 157.888 94.1328 158.513 94.4258C159.138 94.7188 159.865 94.8652 160.695 94.8652C161.388 94.8652 161.965 94.8066 162.424 94.6895C162.892 94.5723 163.268 94.4307 163.552 94.2646C163.845 94.0889 164.069 93.9229 164.225 93.7666V89.9873H160.212V86.8525H168.62ZM178.638 76.6719V98H174.258V76.6719H178.638ZM201.912 76.6719V98H197.518L188.948 83.7031V98H184.554V76.6719H188.948L197.532 90.9834V76.6719H201.912ZM221.847 94.5723V98H210.495V94.5723H221.847ZM211.93 76.6719V98H207.536V76.6719H211.93ZM220.368 85.3584V88.6982H210.495V85.3584H220.368ZM221.832 76.6719V80.1143H210.495V76.6719H221.832Z" fill="white"/>
<path d="M68.0213 292.668C68.0213 292.349 67.9586 292.058 67.8333 291.796C67.708 291.523 67.4972 291.278 67.201 291.062C66.9161 290.845 66.5288 290.64 66.0389 290.446C65.549 290.253 64.9394 290.07 64.2103 289.899C62.957 289.603 61.8689 289.278 60.9461 288.925C60.0346 288.561 59.277 288.145 58.6731 287.678C58.0807 287.199 57.6364 286.63 57.3401 285.969C57.0439 285.308 56.8958 284.533 56.8958 283.645C56.8958 282.79 57.0838 282.004 57.4598 281.286C57.8357 280.568 58.3655 279.953 59.0491 279.44C59.7327 278.928 60.5416 278.529 61.4759 278.244C62.4101 277.959 63.4298 277.817 64.535 277.817C66.1414 277.817 67.5599 278.068 68.7903 278.569C70.0322 279.07 71.0006 279.782 71.6956 280.705C72.3906 281.617 72.7381 282.716 72.7381 284.003H67.8162C67.8162 283.525 67.6852 283.086 67.4231 282.688C67.1725 282.289 66.8079 281.97 66.3294 281.73C65.8509 281.48 65.2584 281.354 64.552 281.354C63.8685 281.354 63.3045 281.463 62.8602 281.679C62.4158 281.884 62.0854 282.152 61.8689 282.482C61.6639 282.801 61.5613 283.132 61.5613 283.474C61.5613 283.758 61.624 284.021 61.7493 284.26C61.886 284.499 62.0968 284.721 62.3816 284.926C62.6779 285.12 63.0595 285.308 63.5267 285.49C64.0052 285.661 64.5805 285.832 65.2527 286.003C66.506 286.276 67.594 286.601 68.5169 286.977C69.4511 287.342 70.2259 287.78 70.8411 288.293C71.4677 288.806 71.9349 289.415 72.2425 290.122C72.5501 290.817 72.7039 291.62 72.7039 292.531C72.7039 293.443 72.5159 294.257 72.1399 294.975C71.7754 295.681 71.2456 296.28 70.5506 296.77C69.867 297.259 69.041 297.635 68.0726 297.897C67.1155 298.148 66.0446 298.273 64.8597 298.273C63.8001 298.273 62.7576 298.148 61.7322 297.897C60.7068 297.647 59.7783 297.259 58.9466 296.735C58.1149 296.2 57.4484 295.516 56.9471 294.685C56.4572 293.853 56.2122 292.856 56.2122 291.694H61.1512C61.1512 292.241 61.2309 292.708 61.3904 293.095C61.5613 293.483 61.812 293.802 62.1424 294.052C62.4842 294.292 62.9 294.468 63.3899 294.582C63.8912 294.696 64.4666 294.753 65.116 294.753C65.8452 294.753 66.4205 294.65 66.8421 294.445C67.275 294.229 67.577 293.961 67.7478 293.642C67.9301 293.323 68.0213 292.998 68.0213 292.668ZM89.5183 278.09H94.4572V291.044C94.4572 292.594 94.104 293.91 93.3977 294.992C92.7027 296.075 91.7285 296.895 90.4753 297.453C89.2334 298 87.7751 298.273 86.1003 298.273C84.4483 298.273 82.9899 298 81.7253 297.453C80.472 296.895 79.4922 296.075 78.7858 294.992C78.0795 293.91 77.7263 292.594 77.7263 291.044V278.09H82.6481V291.044C82.6481 291.831 82.7849 292.48 83.0583 292.993C83.3317 293.494 83.7248 293.864 84.2375 294.104C84.7502 294.331 85.3711 294.445 86.1003 294.445C86.8409 294.445 87.4618 294.331 87.9631 294.104C88.4644 293.864 88.8461 293.494 89.1081 292.993C89.3815 292.48 89.5183 291.831 89.5183 291.044V278.09ZM108.366 291.352H103V287.507H108.366C109.118 287.507 109.739 287.399 110.229 287.182C110.719 286.954 111.078 286.652 111.306 286.276C111.545 285.889 111.665 285.45 111.665 284.96C111.665 284.425 111.545 283.929 111.306 283.474C111.078 283.018 110.719 282.653 110.229 282.38C109.739 282.095 109.118 281.953 108.366 281.953H104.829V298H99.9068V278.09H108.366C110.075 278.09 111.539 278.387 112.758 278.979C113.989 279.571 114.929 280.38 115.578 281.406C116.239 282.431 116.569 283.605 116.569 284.926C116.569 285.883 116.381 286.761 116.005 287.558C115.641 288.344 115.1 289.022 114.382 289.592C113.676 290.161 112.815 290.6 111.801 290.908C110.799 291.204 109.654 291.352 108.366 291.352ZM130.017 291.352H124.651V287.507H130.017C130.769 287.507 131.39 287.399 131.88 287.182C132.37 286.954 132.729 286.652 132.957 286.276C133.196 285.889 133.315 285.45 133.315 284.96C133.315 284.425 133.196 283.929 132.957 283.474C132.729 283.018 132.37 282.653 131.88 282.38C131.39 282.095 130.769 281.953 130.017 281.953H126.479V298H121.558V278.09H130.017C131.726 278.09 133.19 278.387 134.409 278.979C135.64 279.571 136.58 280.38 137.229 281.406C137.89 282.431 138.22 283.605 138.22 284.926C138.22 285.883 138.032 286.761 137.656 287.558C137.292 288.344 136.75 289.022 136.033 289.592C135.326 290.161 134.466 290.6 133.452 290.908C132.45 291.204 131.305 291.352 130.017 291.352ZM161.153 287.644V288.464C161.153 289.979 160.925 291.341 160.469 292.548C160.025 293.756 159.392 294.787 158.572 295.642C157.752 296.496 156.772 297.151 155.633 297.607C154.505 298.051 153.257 298.273 151.89 298.273C150.523 298.273 149.27 298.051 148.13 297.607C147.002 297.151 146.023 296.496 145.191 295.642C144.359 294.787 143.715 293.756 143.26 292.548C142.804 291.341 142.576 289.979 142.576 288.464V287.644C142.576 286.117 142.798 284.755 143.243 283.559C143.698 282.351 144.336 281.32 145.157 280.466C145.988 279.6 146.968 278.945 148.096 278.5C149.235 278.045 150.489 277.817 151.856 277.817C153.223 277.817 154.471 278.045 155.599 278.5C156.738 278.945 157.723 279.6 158.555 280.466C159.387 281.32 160.025 282.351 160.469 283.559C160.925 284.755 161.153 286.117 161.153 287.644ZM156.214 288.464V287.609C156.214 286.652 156.111 285.809 155.906 285.08C155.712 284.34 155.428 283.719 155.052 283.217C154.687 282.705 154.231 282.317 153.684 282.055C153.149 281.782 152.539 281.645 151.856 281.645C151.161 281.645 150.54 281.782 149.993 282.055C149.458 282.317 149.008 282.705 148.643 283.217C148.278 283.719 147.999 284.34 147.806 285.08C147.623 285.809 147.532 286.652 147.532 287.609V288.464C147.532 289.41 147.623 290.253 147.806 290.993C147.999 291.734 148.284 292.366 148.66 292.89C149.036 293.403 149.492 293.796 150.027 294.069C150.574 294.331 151.195 294.462 151.89 294.462C152.574 294.462 153.183 294.331 153.719 294.069C154.254 293.796 154.704 293.403 155.069 292.89C155.445 292.366 155.73 291.734 155.923 290.993C156.117 290.253 156.214 289.41 156.214 288.464ZM166.073 278.09H174.395C175.626 278.09 176.737 278.221 177.728 278.483C178.719 278.734 179.562 279.11 180.257 279.611C180.964 280.113 181.505 280.739 181.881 281.491C182.257 282.232 182.445 283.092 182.445 284.072C182.445 285.234 182.251 286.202 181.864 286.977C181.476 287.752 180.941 288.384 180.257 288.874C179.574 289.364 178.782 289.774 177.882 290.104L176.241 291.062H169.166L169.132 287.216H174.429C175.113 287.216 175.683 287.114 176.138 286.909C176.594 286.692 176.936 286.385 177.164 285.986C177.392 285.587 177.506 285.114 177.506 284.567C177.506 284.009 177.386 283.536 177.147 283.149C176.908 282.762 176.554 282.465 176.087 282.26C175.631 282.055 175.068 281.953 174.395 281.953H171.012V298H166.073V278.09ZM177.882 298L173.114 289.216L178.343 289.165L183.197 297.795V298H177.882ZM197.721 278.09V298H192.765V278.09H197.721ZM204.198 278.09V281.953H186.425V278.09H204.198Z" fill="#2A432F"/>
<path d="M160.516 183.479L156.338 178.124L201.13 166.576L160.516 183.479Z" fill="#33B7BD"/>
<path d="M75.6113 227.996L36 165.07L121.407 201.888L75.6113 227.996Z" fill="#00BB72"/>
<path d="M125.752 205.738L82.9653 229H165.865L125.752 205.738Z" fill="#00BB72"/>
<path d="M122.744 148V197.37L95.6675 186.492L122.744 148Z" fill="#33B7BD"/>
<path d="M50.708 166.576L90.4864 182.81L94.8319 177.957L50.708 166.576Z" fill="#33B7BD"/>
<path d="M127.089 148V197.37L154.833 186.157L127.089 148Z" fill="#33B7BD"/>
<path d="M214 165.405L129.262 201.888L174.222 229L214 165.405Z" fill="#00BB72"/>
</g>
<path d="M118.5 106C118.5 95.2305 127.23 86.5 138 86.5H348C358.77 86.5 367.5 95.2304 367.5 106V436C367.5 446.77 358.77 455.5 348 455.5H138C127.23 455.5 118.5 446.77 118.5 436V106Z" fill="#151515"/>
<path d="M118.5 106C118.5 95.2305 127.23 86.5 138 86.5H348C358.77 86.5 367.5 95.2304 367.5 106V436C367.5 446.77 358.77 455.5 348 455.5H138C127.23 455.5 118.5 446.77 118.5 436V106Z" stroke="url(#paint3_linear_43_1141)"/>
<path d="M172.059 175.746H177.169C177.066 177.42 176.605 178.907 175.784 180.206C174.975 181.505 173.842 182.519 172.383 183.248C170.936 183.977 169.193 184.342 167.154 184.342C165.559 184.342 164.129 184.068 162.864 183.521C161.6 182.963 160.517 182.166 159.617 181.129C158.729 180.092 158.051 178.839 157.584 177.369C157.116 175.899 156.883 174.253 156.883 172.43V170.704C156.883 168.881 157.122 167.235 157.601 165.765C158.091 164.284 158.786 163.025 159.686 161.988C160.597 160.951 161.685 160.154 162.95 159.596C164.214 159.037 165.627 158.758 167.188 158.758C169.262 158.758 171.011 159.134 172.435 159.886C173.87 160.638 174.981 161.675 175.767 162.997C176.565 164.318 177.043 165.822 177.203 167.508H172.076C172.019 166.506 171.819 165.657 171.478 164.962C171.136 164.256 170.617 163.726 169.922 163.373C169.239 163.008 168.327 162.826 167.188 162.826C166.334 162.826 165.587 162.985 164.949 163.304C164.311 163.623 163.776 164.107 163.343 164.757C162.91 165.406 162.585 166.227 162.369 167.218C162.164 168.198 162.061 169.348 162.061 170.67V172.43C162.061 173.718 162.158 174.851 162.352 175.831C162.545 176.799 162.842 177.62 163.24 178.292C163.65 178.953 164.175 179.454 164.813 179.796C165.462 180.126 166.242 180.292 167.154 180.292C168.225 180.292 169.108 180.121 169.803 179.779C170.498 179.437 171.028 178.93 171.392 178.258C171.768 177.586 171.99 176.748 172.059 175.746ZM199.332 180.001V184H186.087V180.001H199.332ZM187.762 159.117V184H182.635V159.117H187.762ZM197.606 169.251V173.148H186.087V169.251H197.606ZM199.315 159.117V163.133H186.087V159.117H199.315ZM217.377 177.489C217.377 177.044 217.308 176.646 217.172 176.292C217.046 175.928 216.807 175.597 216.454 175.301C216.101 174.994 215.605 174.692 214.967 174.396C214.329 174.099 213.503 173.792 212.489 173.473C211.361 173.108 210.29 172.698 209.276 172.242C208.274 171.786 207.385 171.257 206.61 170.653C205.847 170.038 205.243 169.326 204.799 168.517C204.366 167.708 204.149 166.768 204.149 165.697C204.149 164.66 204.377 163.72 204.833 162.877C205.289 162.022 205.927 161.293 206.747 160.689C207.567 160.074 208.536 159.601 209.652 159.271C210.78 158.941 212.016 158.775 213.361 158.775C215.195 158.775 216.796 159.106 218.163 159.767C219.53 160.427 220.59 161.333 221.342 162.484C222.105 163.635 222.487 164.951 222.487 166.432H217.394C217.394 165.702 217.24 165.064 216.933 164.518C216.636 163.959 216.181 163.521 215.565 163.202C214.961 162.883 214.198 162.723 213.275 162.723C212.387 162.723 211.646 162.86 211.054 163.133C210.461 163.395 210.017 163.754 209.721 164.21C209.424 164.654 209.276 165.156 209.276 165.714C209.276 166.135 209.379 166.517 209.584 166.859C209.8 167.201 210.119 167.52 210.541 167.816C210.962 168.112 211.481 168.391 212.096 168.653C212.711 168.915 213.423 169.172 214.232 169.422C215.588 169.833 216.779 170.294 217.804 170.807C218.841 171.319 219.707 171.895 220.402 172.533C221.097 173.171 221.621 173.894 221.974 174.703C222.327 175.512 222.504 176.429 222.504 177.455C222.504 178.537 222.293 179.505 221.871 180.36C221.45 181.214 220.84 181.938 220.043 182.53C219.245 183.123 218.294 183.573 217.189 183.88C216.084 184.188 214.848 184.342 213.48 184.342C212.25 184.342 211.037 184.182 209.84 183.863C208.644 183.533 207.556 183.037 206.576 182.376C205.608 181.716 204.833 180.873 204.252 179.847C203.671 178.822 203.38 177.608 203.38 176.207H208.524C208.524 176.982 208.644 177.637 208.883 178.172C209.122 178.708 209.459 179.141 209.892 179.471C210.336 179.802 210.86 180.041 211.464 180.189C212.079 180.337 212.751 180.411 213.48 180.411C214.369 180.411 215.098 180.286 215.668 180.035C216.249 179.785 216.676 179.437 216.95 178.993C217.234 178.548 217.377 178.047 217.377 177.489ZM246.545 184H241.128L241.162 180.001H246.545C247.89 180.001 249.023 179.699 249.946 179.095C250.869 178.48 251.564 177.586 252.031 176.412C252.509 175.239 252.749 173.82 252.749 172.157V170.943C252.749 169.667 252.612 168.545 252.339 167.577C252.077 166.608 251.683 165.794 251.159 165.133C250.635 164.472 249.992 163.976 249.228 163.646C248.465 163.304 247.588 163.133 246.596 163.133H241.025V159.117H246.596C248.26 159.117 249.781 159.402 251.159 159.972C252.549 160.53 253.751 161.333 254.765 162.381C255.779 163.43 256.56 164.683 257.107 166.141C257.665 167.588 257.944 169.2 257.944 170.978V172.157C257.944 173.923 257.665 175.535 257.107 176.993C256.56 178.451 255.779 179.705 254.765 180.753C253.763 181.79 252.561 182.593 251.159 183.163C249.769 183.721 248.231 184 246.545 184ZM244.033 159.117V184H238.906V159.117H244.033ZM280.466 180.001V184H267.222V180.001H280.466ZM268.897 159.117V184H263.77V159.117H268.897ZM278.74 169.251V173.148H267.222V169.251H278.74ZM280.449 159.117V163.133H267.222V159.117H280.449ZM299.981 175.746H305.091C304.988 177.42 304.527 178.907 303.707 180.206C302.898 181.505 301.764 182.519 300.306 183.248C298.859 183.977 297.116 184.342 295.076 184.342C293.481 184.342 292.051 184.068 290.787 183.521C289.522 182.963 288.44 182.166 287.54 181.129C286.651 180.092 285.973 178.839 285.506 177.369C285.039 175.899 284.805 174.253 284.805 172.43V170.704C284.805 168.881 285.044 167.235 285.523 165.765C286.013 164.284 286.708 163.025 287.608 161.988C288.519 160.951 289.607 160.154 290.872 159.596C292.137 159.037 293.549 158.758 295.11 158.758C297.184 158.758 298.933 159.134 300.357 159.886C301.792 160.638 302.903 161.675 303.689 162.997C304.487 164.318 304.965 165.822 305.125 167.508H299.998C299.941 166.506 299.742 165.657 299.4 164.962C299.058 164.256 298.54 163.726 297.845 163.373C297.161 163.008 296.25 162.826 295.11 162.826C294.256 162.826 293.51 162.985 292.872 163.304C292.234 163.623 291.698 164.107 291.265 164.757C290.832 165.406 290.507 166.227 290.291 167.218C290.086 168.198 289.983 169.348 289.983 170.67V172.43C289.983 173.718 290.08 174.851 290.274 175.831C290.468 176.799 290.764 177.62 291.163 178.292C291.573 178.953 292.097 179.454 292.735 179.796C293.384 180.126 294.165 180.292 295.076 180.292C296.147 180.292 297.03 180.121 297.725 179.779C298.42 179.437 298.95 178.93 299.314 178.258C299.69 177.586 299.913 176.748 299.981 175.746ZM315.684 159.117V184H310.558V159.117H315.684ZM330.587 159.117L320.726 171.405L315.035 177.523L314.112 172.669L317.957 167.406L324.298 159.117H330.587ZM324.759 184L317.428 172.499L321.222 169.32L330.826 184H324.759Z" fill="white"/>
<path d="M133.352 360.09H137.42L142.376 373.711L147.349 360.09H151.399L144.016 380H140.752L133.352 360.09ZM130.925 360.09H135.078L135.864 375.693V380H130.925V360.09ZM149.69 360.09H153.877V380H148.921V375.693L149.69 360.09ZM167.94 365.269L162.642 380H157.669L165.53 360.09H168.914L167.94 365.269ZM173.17 380L167.769 365.269L166.778 360.09H170.213L178.126 380H173.17ZM173.067 372.6V376.104H162.061V372.6H173.067ZM199.691 360.09V380H194.752L186.874 367.319V380H181.952V360.09H186.874L194.752 372.771V360.09H199.691ZM213.737 365.269L208.439 380H203.466L211.327 360.09H214.711L213.737 365.269ZM218.966 380L213.566 365.269L212.575 360.09H216.01L223.922 380H218.966ZM218.864 372.6V376.104H207.858V372.6H218.864ZM244.872 369.302V377.573C244.508 377.949 243.955 378.348 243.215 378.77C242.485 379.191 241.557 379.55 240.429 379.846C239.312 380.131 237.979 380.273 236.43 380.273C235.029 380.273 233.753 380.063 232.602 379.641C231.451 379.22 230.46 378.599 229.628 377.778C228.808 376.947 228.176 375.933 227.731 374.736C227.287 373.529 227.065 372.15 227.065 370.601V369.49C227.065 367.94 227.287 366.567 227.731 365.371C228.176 364.175 228.802 363.161 229.611 362.329C230.431 361.497 231.394 360.871 232.499 360.449C233.604 360.016 234.824 359.8 236.157 359.8C238.093 359.8 239.677 360.096 240.908 360.688C242.138 361.27 243.067 362.078 243.693 363.115C244.331 364.141 244.719 365.326 244.855 366.67H240.104C240.002 366.009 239.808 365.457 239.523 365.012C239.238 364.568 238.84 364.232 238.327 364.004C237.814 363.776 237.142 363.662 236.31 363.662C235.661 363.662 235.074 363.782 234.55 364.021C234.026 364.249 233.57 364.602 233.183 365.081C232.807 365.559 232.516 366.163 232.311 366.892C232.106 367.61 232.004 368.464 232.004 369.456V370.601C232.004 371.58 232.101 372.435 232.294 373.164C232.499 373.893 232.796 374.503 233.183 374.993C233.582 375.471 234.077 375.836 234.67 376.086C235.274 376.326 235.98 376.445 236.789 376.445C237.655 376.445 238.338 376.36 238.84 376.189C239.341 376.007 239.7 375.836 239.916 375.676V372.703H236.054V369.302H244.872ZM264.541 376.155V380H253.091V376.155H264.541ZM254.834 360.09V380H249.912V360.09H254.834ZM263.071 367.781V371.626H253.091V367.781H263.071ZM264.558 360.09V363.953H253.091V360.09H264.558ZM271.289 360.09H275.357L280.313 373.711L285.286 360.09H289.336L281.953 380H278.689L271.289 360.09ZM268.862 360.09H273.015L273.801 375.693V380H268.862V360.09ZM287.627 360.09H291.814V380H286.858V375.693L287.627 360.09ZM311.978 376.155V380H300.528V376.155H311.978ZM302.271 360.09V380H297.349V360.09H302.271ZM310.508 367.781V371.626H300.528V367.781H310.508ZM311.995 360.09V363.953H300.528V360.09H311.995ZM334.039 360.09V380H329.1L321.222 367.319V380H316.3V360.09H321.222L329.1 372.771V360.09H334.039ZM349.708 360.09V380H344.752V360.09H349.708ZM356.185 360.09V363.953H338.412V360.09H356.185Z" fill="#663245"/>
<line x1="141" y1="390.5" x2="341" y2="390.5" stroke="url(#paint4_linear_43_1141)"/>
<path d="M273.516 265.479L269.338 260.124L314.13 248.576L273.516 265.479Z" fill="#33B7BD"/>
<path d="M188.611 309.996L149 247.07L234.407 283.888L188.611 309.996Z" fill="#00BB72"/>
<path d="M238.752 287.738L195.965 311H278.865L238.752 287.738Z" fill="#00BB72"/>
<path d="M235.744 230V279.37L208.667 268.492L235.744 230Z" fill="#33B7BD"/>
<path d="M163.708 248.576L203.486 264.81L207.832 259.957L163.708 248.576Z" fill="#33B7BD"/>
<path d="M240.089 230V279.37L267.833 268.157L240.089 230Z" fill="#33B7BD"/>
<path d="M327 247.405L242.262 283.888L287.222 311L327 247.405Z" fill="#00BB72"/>
<path d="M194.06 413.16C192.887 413.16 191.833 412.907 190.9 412.4C189.967 411.893 189.227 411.2 188.68 410.32C188.147 409.427 187.88 408.42 187.88 407.3C187.88 406.193 188.147 405.2 188.68 404.32C189.227 403.44 189.967 402.747 190.9 402.24C191.833 401.733 192.887 401.48 194.06 401.48C195.247 401.48 196.3 401.733 197.22 402.24C198.153 402.747 198.887 403.44 199.42 404.32C199.967 405.2 200.24 406.193 200.24 407.3C200.24 408.42 199.967 409.427 199.42 410.32C198.887 411.2 198.153 411.893 197.22 412.4C196.3 412.907 195.247 413.16 194.06 413.16ZM194.06 411.48C194.873 411.48 195.593 411.3 196.22 410.94C196.86 410.58 197.36 410.087 197.72 409.46C198.093 408.82 198.28 408.107 198.28 407.32C198.28 406.507 198.093 405.793 197.72 405.18C197.36 404.553 196.86 404.06 196.22 403.7C195.593 403.34 194.873 403.16 194.06 403.16C193.26 403.16 192.54 403.34 191.9 403.7C191.26 404.047 190.753 404.533 190.38 405.16C190.02 405.787 189.84 406.507 189.84 407.32C189.84 408.107 190.02 408.82 190.38 409.46C190.753 410.087 191.26 410.58 191.9 410.94C192.54 411.3 193.26 411.48 194.06 411.48ZM203.661 413V401.64H205.601V413H203.661ZM210.062 413V401.64H212.002V411.38H218.102V413H210.062ZM228.79 413V403.24H224.91V401.64H234.61V403.24H230.73V413H228.79ZM234.57 413L239.77 401.64H241.69L246.91 413H244.95L240.41 402.66H241.07L236.47 413H234.57ZM236.95 410.3L237.47 408.76H243.71L244.23 410.3H236.95ZM249.435 413V401.64H251.035L258.335 410.6H257.595V401.64H259.535V413H257.935L250.615 404.04H251.375V413H249.435ZM265.739 410.28L265.639 407.98L271.899 401.64H274.059L269.039 406.92L267.959 408.04L265.739 410.28ZM264.019 413V401.64H265.959V413H264.019ZM272.079 413L267.559 407.72L268.819 406.3L274.379 413H272.079ZM278.641 406.44H284.621V408.02H278.641V406.44ZM278.961 411.38H285.541V413H277.021V401.64H285.321V403.24H278.961V411.38ZM289.028 413V401.64H293.668C294.668 401.64 295.528 401.8 296.248 402.12C296.968 402.427 297.528 402.88 297.928 403.48C298.328 404.067 298.528 404.787 298.528 405.64C298.528 406.467 298.328 407.18 297.928 407.78C297.528 408.38 296.968 408.84 296.248 409.16C295.528 409.467 294.668 409.62 293.668 409.62H290.108L290.968 408.74V413H289.028ZM296.628 413L293.668 408.88H295.768L298.728 413H296.628ZM290.968 408.96L290.228 408.04H293.548C294.534 408.04 295.281 407.833 295.788 407.42C296.308 407.007 296.568 406.413 296.568 405.64C296.568 404.867 296.308 404.273 295.788 403.86C295.281 403.447 294.534 403.24 293.548 403.24H290.228L290.968 402.32V408.96Z" fill="white"/>
<defs>
<filter id="filter0_f_43_1141" x="210" y="190" width="258" height="378" filterUnits="userSpaceOnUse" color-interpolation-filters="sRGB">
<feFlood flood-opacity="0" result="BackgroundImageFix"/>
<feBlend mode="normal" in="SourceGraphic" in2="BackgroundImageFix" result="shape"/>
<feGaussianBlur stdDeviation="2" result="effect1_foregroundBlur_43_1141"/>
</filter>
<filter id="filter1_f_43_1141" x="0" y="0" width="258" height="378" filterUnits="userSpaceOnUse" color-interpolation-filters="sRGB">
<feFlood flood-opacity="0" result="BackgroundImageFix"/>
<feBlend mode="normal" in="SourceGraphic" in2="BackgroundImageFix" result="shape"/>
<feGaussianBlur stdDeviation="2" result="effect1_foregroundBlur_43_1141"/>
</filter>
<linearGradient id="paint0_linear_43_1141" x1="351.919" y1="841.5" x2="677.249" y2="-185.44" gradientUnits="userSpaceOnUse">
<stop stop-color="#055120"/>
<stop offset="1" stop-color="#00787D"/>
</linearGradient>
<linearGradient id="paint1_linear_43_1141" x1="228.667" y1="485" x2="452.333" y2="485" gradientUnits="userSpaceOnUse">
<stop stop-color="#00BB72" stop-opacity="0"/>
<stop offset="0.455223" stop-color="#00BB72"/>
<stop offset="1" stop-color="#00BB72" stop-opacity="0"/>
</linearGradient>
<linearGradient id="paint2_linear_43_1141" x1="141.919" y1="651.5" x2="467.249" y2="-375.44" gradientUnits="userSpaceOnUse">
<stop stop-color="#055120"/>
<stop offset="1" stop-color="#00787D"/>
</linearGradient>
<linearGradient id="paint3_linear_43_1141" x1="255.919" y1="733.5" x2="581.249" y2="-293.44" gradientUnits="userSpaceOnUse">
<stop stop-color="#055120"/>
<stop offset="1" stop-color="#00787D"/>
</linearGradient>
<linearGradient id="paint4_linear_43_1141" x1="130.667" y1="391" x2="354.333" y2="391" gradientUnits="userSpaceOnUse">
<stop stop-color="#00BB72" stop-opacity="0"/>
<stop offset="0.455223" stop-color="#00BB72"/>
<stop offset="1" stop-color="#00BB72" stop-opacity="0"/>
</linearGradient>
</defs>
</svg>
